<svg width="64" height="64" viewBox="0 0 64 64" fill="none" xmlns="http://www.w3.org/2000/svg">
<rect width="64" height="64" rx="16" fill="url(#paint0_linear_42_12)"/>
<path d="M26.0281 38.7949C26.9917 38.7949 27.8608 38.6419 28.6355 38.3359C29.4168 38.0234 30.0353 37.571 30.491 36.9785C30.9467 36.3796 31.1746 35.6504 31.1746 34.791V34.7812C31.1746 33.7266 30.8328 32.9095 30.1492 32.3301C29.4721 31.7507 28.476 31.3112 27.1609 31.0117L25.6766 30.6699C25.1427 30.5462 24.713 30.3965 24.3875 30.2207C24.062 30.0449 23.8243 29.8431 23.6746 29.6152C23.5314 29.3874 23.4598 29.1302 23.4598 28.8438V28.8242C23.4598 28.5052 23.5574 28.2122 23.7527 27.9453C23.948 27.6784 24.2345 27.4635 24.6121 27.3008C24.9962 27.138 25.4715 27.0566 26.0379 27.0566C26.5327 27.0566 26.9721 27.1348 27.3562 27.291C27.7469 27.4473 28.0594 27.6751 28.2937 27.9746C28.5346 28.2741 28.6811 28.6387 28.7332 29.0684V29.1074L30.9988 29.0977V29.0488C30.9663 28.248 30.7319 27.5547 30.2957 26.9688C29.866 26.3763 29.2833 25.9206 28.5477 25.6016C27.812 25.276 26.9689 25.1133 26.0184 25.1133C25.0743 25.1133 24.2312 25.2728 23.4891 25.5918C22.7534 25.9043 22.1707 26.3535 21.741 26.9395C21.3178 27.5189 21.1062 28.2057 21.1062 29V29.0195C21.1062 29.6966 21.2527 30.2793 21.5457 30.7676C21.8452 31.2493 22.2814 31.653 22.8543 31.9785C23.4337 32.304 24.1401 32.5645 24.9734 32.7598L26.4578 33.1016C27.3693 33.3099 27.991 33.5605 28.323 33.8535C28.6551 34.1465 28.8211 34.5306 28.8211 35.0059V35.0254C28.8211 35.3835 28.7234 35.6992 28.5281 35.9727C28.3393 36.2461 28.0398 36.4609 27.6297 36.6172C27.226 36.7734 26.7052 36.8516 26.0672 36.8516C25.4422 36.8516 24.9246 36.7669 24.5145 36.5977C24.1043 36.4284 23.7853 36.194 23.5574 35.8945C23.3361 35.5951 23.1928 35.25 23.1277 34.8594L23.118 34.8203L20.8426 34.8301V34.8691C20.8816 35.696 21.1323 36.4023 21.5945 36.9883C22.0568 37.5742 22.672 38.0234 23.4402 38.3359C24.215 38.6419 25.0776 38.7949 26.0281 38.7949ZM25.4812 40.4062H26.6043V23.4922H25.4812V40.4062ZM33.4895 39H43.2941V36.9199H36.1555L36.8684 37.4375V36.1973L36.1555 37.4375L39.759 33.9512C40.6118 33.1309 41.2792 32.4277 41.7609 31.8418C42.2427 31.2493 42.5812 30.7025 42.7766 30.2012C42.9784 29.6999 43.0793 29.1823 43.0793 28.6484V28.6191C43.0793 27.8314 42.8775 27.1348 42.4738 26.5293C42.0702 25.9238 41.5103 25.4486 40.7941 25.1035C40.0845 24.7585 39.2674 24.5859 38.343 24.5859C37.3729 24.5859 36.5103 24.7747 35.7551 25.1523C35.0064 25.5299 34.4172 26.054 33.9875 26.7246C33.5643 27.3952 33.3527 28.1667 33.3527 29.0391L33.3625 29.0781H35.7062V29.0293C35.7128 28.554 35.8202 28.1341 36.0285 27.7695C36.2434 27.4049 36.5428 27.1185 36.927 26.9102C37.3111 26.7018 37.7538 26.5977 38.2551 26.5977C38.7368 26.5977 39.1503 26.6953 39.4953 26.8906C39.8469 27.0794 40.1171 27.3431 40.3059 27.6816C40.5012 28.0137 40.5988 28.3945 40.5988 28.8242V28.8535C40.5988 29.2051 40.5305 29.5436 40.3937 29.8691C40.257 30.1882 40.0129 30.556 39.6613 30.9727C39.3163 31.3828 38.828 31.9069 38.1965 32.5449L33.4895 37.291V39Z" fill="#464646"/>
<defs>
<linearGradient id="paint0_linear_42_12" x1="-7.47445" y1="-11.8154" x2="76.6202" y2="68.4491" gradientUnits="userSpaceOnUse">
<stop stop-color="#8CFFBC"/>
<stop offset="1" stop-color="#6DEAA1"/>
</linearGradient>
</defs>
</svg>
